<?xml version="1.0" standalone="no"?>
<!DOCTYPE svg PUBLIC "-//W3C//DTD SVG 20010904//EN"
 "http://www.w3.org/TR/2001/REC-SVG-20010904/DTD/svg10.dtd">
<svg version="1.0" xmlns="http://www.w3.org/2000/svg"
 width="242.000000pt" height="242.000000pt" viewBox="0 0 242.000000 242.000000"
 preserveAspectRatio="xMidYMid meet">
<metadata>
Created by potrace 1.14, written by Peter Selinger 2001-2017
</metadata>
<g transform="translate(0.000000,242.000000) scale(0.100000,-0.100000)"
fill="#000000" stroke="none">
<path d="M1015 2108 c-214 -19 -394 -72 -584 -170 -146 -74 -143 -72 -137
-122 3 -23 8 -68 11 -101 8 -67 15 -118 18 -121 5 -5 217 -14 342 -14 196 -1
185 -2 179 15 -8 21 6 19 30 -4 19 -18 44 -20 296 -27 151 -3 289 -8 305 -9
17 -2 161 -6 320 -10 l291 -7 12 73 c7 41 14 113 17 160 6 101 10 96 -115 161
-97 50 -283 125 -297 120 -2 0 -17 4 -35 9 -18 5 -55 14 -83 20 -50 10 -63 12
-160 25 -72 10 -316 11 -410 2z"/>
<path d="M220 1507 c19 -19 132 -97 140 -97 6 0 10 -4 10 -8 0 -4 44 -39 98
-77 53 -39 104 -75 112 -82 8 -7 26 -20 39 -31 l24 -18 -159 -129 c-87 -71
-163 -132 -169 -137 -5 -4 -28 -22 -50 -41 -22 -18 -74 -60 -115 -93 -99 -78
-142 -119 -115 -109 38 13 100 33 265 86 91 29 167 54 170 55 3 0 20 5 38 9
17 4 32 11 32 15 0 4 6 7 13 6 12 -1 155 42 237 72 25 9 52 17 60 19 8 1 103
31 210 66 107 35 256 83 330 106 74 24 151 49 170 56 19 7 82 28 140 46 58 17
139 43 180 56 41 14 82 26 90 28 8 2 56 18 105 35 50 17 97 33 106 35 35 7
210 67 207 71 -2 2 -80 6 -173 9 -163 5 -257 8 -720 20 -115 3 -277 8 -360 10
-498 18 -921 28 -915 22z"/>
<path d="M1810 1175 c-91 -30 -194 -64 -230 -75 -36 -11 -132 -42 -215 -69
-82 -26 -224 -72 -315 -100 -91 -29 -174 -56 -185 -61 -11 -4 -62 -21 -114
-37 -52 -16 -96 -33 -98 -39 -2 -5 9 -25 24 -44 39 -49 256 -270 265 -270 7 0
17 -7 71 -53 12 -10 34 -26 50 -35 15 -9 27 -20 27 -24 0 -4 6 -8 14 -8 7 0
19 -7 26 -15 7 -9 28 -23 48 -32 29 -14 38 -14 56 -3 46 27 222 156 250 183
17 16 53 47 80 70 27 23 56 50 65 61 9 10 47 55 85 100 38 44 75 82 83 84 7 2
13 10 13 18 0 8 5 14 10 14 6 0 10 9 10 19 0 11 16 47 35 80 19 32 32 66 29
74 -3 9 2 18 13 21 11 4 30 36 49 84 43 105 45 112 31 112 -7 -1 -86 -25 -177
-55z"/>
</g>
</svg>
